<svg width="314" height="320" viewBox="0 0 314 320" fill="none" xmlns="http://www.w3.org/2000/svg">
<path fill-rule="evenodd" clip-rule="evenodd" d="M289.875 207.067C271.875 232.567 210.376 303.567 118.876 308.067C93.8756 308.067 50.8759 294.967 78.8759 242.567C89.0425 226.567 119.376 195.167 159.376 197.567C199.376 199.967 194.876 225.067 189.376 238.567C187.652 242.799 182.976 255.667 161.376 270.067C158.376 272.567 160.976 276.067 169.376 270.067C179.876 262.567 196.376 248.067 201.376 229.067C206.376 210.067 191.376 189.567 156.876 190.067C122.376 190.567 79.3758 201.067 58.8758 251.567C52.3809 267.567 56.0759 296.867 84.8759 308.067C60.3759 307.734 14.7759 291.967 28.3759 231.567C34.8757 212.567 62.0753 172.667 118.876 165.067C127.209 170.567 150.276 179.567 175.876 171.567C179.709 169.567 184.776 164.167 174.376 158.567C161.376 151.567 127.876 156.067 126.876 156.067C125.899 156.067 121.105 153.204 122.748 140.02C147.124 144.036 194.376 147.567 233.876 132.567C255.626 124.307 271.464 109.226 271.372 95.6697C271.349 92.3571 270.376 89.1357 268.304 86.1271C267.763 85.34 267.146 84.5674 266.451 83.8115C260.933 77.8089 250.512 72.8631 233.876 70.0672C195.876 62.0672 130.876 70.0671 102.876 128.567C63.0426 114.234 19.8759 70.0672 78.8759 24.5672C92.7092 14.5672 133.076 -1.63281 183.876 13.5672C187.876 15.0672 191.111 13.5672 186.876 9.56716C177.876 1.06711 104.876 -12.4328 65.3759 24.5672C28.3759 55.5672 33.8758 94.5672 58.8758 113.567C83.8759 132.567 96.3759 133.067 102.876 135.067C101.876 138.567 102.176 148.167 111.376 158.567C93.8759 159.734 52.7759 167.667 28.3759 190.067C-2.12411 218.067 -23.6241 278.567 48.8759 311.567C60.1223 316.686 78.4753 321.767 118.876 318.567C169.376 314.567 230.375 295.567 289.875 214.067C292.042 210.067 295.075 203.067 289.875 207.067ZM233.876 77.5672C166.876 70.0672 132.376 116.567 122.876 135.067C146.876 138.4 202.676 140.867 233.876 124.067C254.468 113.053 262.048 104.114 262.357 97.1052C262.505 93.7419 260.979 90.8228 258.412 88.3319C257.503 87.4498 256.464 86.6213 255.322 85.8458C249.57 81.9391 241.221 78.8768 233.876 77.5672ZM170.376 165.067C165.976 160.267 142.209 160.734 130.876 161.567C127.426 161.778 129.439 162.988 130.876 163.567L138.876 166.567C141.376 167.567 147.376 168.667 149.376 169.067C151.876 169.567 175.876 171.067 170.376 165.067Z" fill="url(#paint0_linear_36_3)"/>
<path fill-rule="evenodd" clip-rule="evenodd" d="M303 183C288.2 187.4 290.361 198.706 293.027 203.706C296 194.5 293.5 198.5 298.5 189C295.5 201 294.148 202.637 293.027 203.706C296.339 204.739 302.242 201.946 303 183Z" fill="#E5C67B"/>
<path fill-rule="evenodd" clip-rule="evenodd" d="M303 183C288.2 187.4 290.361 198.706 293.027 203.706C296 194.5 293.5 198.5 298.5 189C295.5 201 294.148 202.637 293.027 203.706C296.339 204.739 302.242 201.946 303 183Z" fill="url(#paint1_linear_36_3)" fill-opacity="0.2"/>
<path fill-rule="evenodd" clip-rule="evenodd" d="M284.485 210.497L284.5 210.5C287.333 207.333 290.5 198.7 280.5 189.5C275.007 202.983 280.656 209.602 284.485 210.497ZM284.485 210.497C283.316 210.138 281.305 206.552 282.5 195C283.928 203.928 284.4 208.738 284.485 210.497Z" fill="#E5C67B"/>
<path fill-rule="evenodd" clip-rule="evenodd" d="M284.485 210.497L284.5 210.5C287.333 207.333 290.5 198.7 280.5 189.5C275.007 202.983 280.656 209.602 284.485 210.497ZM284.485 210.497C283.316 210.138 281.305 206.552 282.5 195C283.928 203.928 284.4 208.738 284.485 210.497Z" fill="url(#paint2_linear_36_3)" fill-opacity="0.2"/>
<path fill-rule="evenodd" clip-rule="evenodd" d="M268.657 206.119C267.957 211.458 267.18 217.393 275 220C282.6 212.4 274.167 204.167 269 201C269.128 202.531 268.897 204.29 268.657 206.119ZM271.5 206C271.337 202.857 275.5 214.5 275 220C271.918 211.223 271.663 209.143 271.5 206Z" fill="#E5C67B"/>
<path fill-rule="evenodd" clip-rule="evenodd" d="M268.657 206.119C267.957 211.458 267.18 217.393 275 220C282.6 212.4 274.167 204.167 269 201C269.128 202.531 268.897 204.29 268.657 206.119ZM271.5 206C271.337 202.857 275.5 214.5 275 220C271.918 211.223 271.663 209.143 271.5 206Z" fill="url(#paint3_linear_36_3)" fill-opacity="0.2"/>
<path fill-rule="evenodd" clip-rule="evenodd" d="M292.5 214C294.5 209.333 301.5 201 313.5 205C303.341 217.792 295.426 216.377 292.5 214ZM309.5 206C304.667 208.655 294.1 214 292.5 214C294.667 211.679 301.5 207.2 309.5 206Z" fill="#E5C67B"/>
<path fill-rule="evenodd" clip-rule="evenodd" d="M292.5 214C294.5 209.333 301.5 201 313.5 205C303.341 217.792 295.426 216.377 292.5 214ZM309.5 206C304.667 208.655 294.1 214 292.5 214C294.667 211.679 301.5 207.2 309.5 206Z" fill="url(#paint4_linear_36_3)" fill-opacity="0.2"/>
<defs>
<linearGradient id="paint0_linear_36_3" x1="156.75" y1="0" x2="156.75" y2="319.565" gradientUnits="userSpaceOnUse">
<stop stop-color="#CDA353"/>
<stop offset="0.5" stop-color="#E5C67B"/>
<stop offset="1" stop-color="#DCC081"/>
</linearGradient>
<linearGradient id="paint1_linear_36_3" x1="290.87" y1="183" x2="290.87" y2="220" gradientUnits="userSpaceOnUse">
<stop stop-color="#CDA353" stop-opacity="0"/>
<stop offset="0.5" stop-color="#E5C67B" stop-opacity="0.5"/>
<stop offset="1" stop-color="#DCC081"/>
</linearGradient>
<linearGradient id="paint2_linear_36_3" x1="290.87" y1="183" x2="290.87" y2="220" gradientUnits="userSpaceOnUse">
<stop stop-color="#CDA353" stop-opacity="0"/>
<stop offset="0.5" stop-color="#E5C67B" stop-opacity="0.5"/>
<stop offset="1" stop-color="#DCC081"/>
</linearGradient>
<linearGradient id="paint3_linear_36_3" x1="290.87" y1="183" x2="290.87" y2="220" gradientUnits="userSpaceOnUse">
<stop stop-color="#CDA353" stop-opacity="0"/>
<stop offset="0.5" stop-color="#E5C67B" stop-opacity="0.5"/>
<stop offset="1" stop-color="#DCC081"/>
</linearGradient>
<linearGradient id="paint4_linear_36_3" x1="290.87" y1="183" x2="290.87" y2="220" gradientUnits="userSpaceOnUse">
<stop stop-color="#CDA353" stop-opacity="0"/>
<stop offset="0.5" stop-color="#E5C67B" stop-opacity="0.5"/>
<stop offset="1" stop-color="#DCC081"/>
</linearGradient>
</defs>
</svg>
